<?xml version="1.0" encoding="UTF-8" standalone="no"?>
<!-- Created with Inkscape (http://www.inkscape.org/) -->

<svg
   width="89.345947mm"
   height="145.56477mm"
   viewBox="0 0 89.345947 145.56477"
   version="1.1"
   id="svg1"
   xml:space="preserve"
   sodipodi:docname="portret.svg"
   inkscape:version="1.3.2 (091e20e, 2023-11-25, custom)"
   xmlns:inkscape="http://www.inkscape.org/namespaces/inkscape"
   xmlns:sodipodi="http://sodipodi.sourceforge.net/DTD/sodipodi-0.dtd"
   xmlns="http://www.w3.org/2000/svg"
   xmlns:svg="http://www.w3.org/2000/svg"><sodipodi:namedview
     id="namedview1"
     pagecolor="#ffffff"
     bordercolor="#000000"
     borderopacity="0.25"
     inkscape:showpageshadow="2"
     inkscape:pageopacity="0.0"
     inkscape:pagecheckerboard="0"
     inkscape:deskcolor="#d1d1d1"
     inkscape:document-units="mm"
     inkscape:zoom="0.49575348"
     inkscape:cx="383.255"
     inkscape:cy="509.32573"
     inkscape:window-width="1920"
     inkscape:window-height="1001"
     inkscape:window-x="-9"
     inkscape:window-y="-9"
     inkscape:window-maximized="1"
     inkscape:current-layer="layer1"
     inkscape:export-bgcolor="#ffffff00" /><defs
     id="defs1" /><g
     inkscape:label="Warstwa 1"
     inkscape:groupmode="layer"
     id="layer1"
     style="display:inline"
     transform="translate(-68.046671,-41.1995)"><path
       style="display:inline;fill:#ffc888;fill-opacity:1;stroke-width:1"
       d="m 99.983775,65.94032 c 5.812895,-8.11494 33.406355,-12.723902 43.314515,-1.896393 5.9863,6.541746 7.09441,11.741388 7.09441,11.741388 0,0 1.85176,8.859677 5.91925,16.435535 1.64582,3.065416 -3.70414,10.14484 -3.83024,13.18478 -0.11332,2.73186 3.7807,8.8057 2.5094,14.94358 -1.23696,5.97209 -3.15363,14.14304 -3.15363,14.14304 l -3.7359,-10.14029 -7.20494,-1.0674 -17.07838,7.47179 -0.80055,5.60384 c 0,0 -27.218669,-24.55017 -27.218669,-36.825254 0,-12.275084 14.409879,-18.412629 14.409879,-18.412629 0,0 -13.827656,-10.1528 -10.225145,-15.181987 z"
       id="path1"
       sodipodi:nodetypes="sscssscccccscs"
       inkscape:export-filename="path1.png"
       inkscape:export-xdpi="96"
       inkscape:export-ydpi="96" /><path
       style="fill:#221b12;fill-opacity:1;stroke-width:1"
       d="m 68.847223,94.464792 -0.80055,-25.617569 c 0,0 12.541935,-37.092109 54.971037,-25.350724 42.4291,11.741388 22.41538,20.814279 22.41538,20.814279 0,0 -19.21318,-9.60659 -38.96006,-4.269597 -19.74688,5.336995 2.40165,19.213179 2.40165,19.213179 0,0 -14.409888,12.541935 -13.876189,14.943584 0.533699,2.401647 9.606589,28.552916 27.218669,42.962796 17.61208,14.40989 13.87619,9.07289 13.87619,9.07289 l 2.93534,-4.26959 5.07015,1.6011 -0.5337,5.87069 5.33699,-12.80878 1.86795,-3.7359 0.80055,9.33974 -5.07015,22.94907 -20.01372,3.46905 -31.221418,-23.48278 c 0,0 -10.140288,-40.56115 -6.137542,-41.3617 4.002743,-0.80055 -9.339741,-14.67673 -20.280577,-9.339738 z"
       id="path2" /><path
       style="fill:#ffbf7a;fill-opacity:1;stroke-width:1"
       d="m 76.585864,121.21647 c 0,0 6.404391,38.35965 -2.935348,44.76404 -9.339738,6.40439 36.825254,22.94907 43.229654,20.54743 6.40439,-2.40165 15.14372,-3.7359 14.34317,-12.27509 -0.80055,-8.53919 -12.47522,-2.66849 -21.54812,-10.67399 -9.07288,-8.00549 -20.347285,-37.89265 -20.347285,-37.89265 z"
       id="path3"
       sodipodi:nodetypes="csssscc" /><path
       style="fill:#d68760;fill-opacity:1;stroke-width:1"
       d="m 128.87611,134.53685 c 0,0 13.01969,0.75476 16.03875,2.26429 3.01906,1.50953 2.07561,0 2.07561,0 0,0 3.04318,-2.59321 0.40027,-4.36082 -1.3683,-0.91515 -1.15504,2.28522 -3.79671,-0.16777 -2.64168,-2.45298 -14.71792,2.2643 -14.71792,2.2643 z"
       id="path4"
       sodipodi:nodetypes="cscssc" /><path
       style="fill:#221b12;fill-opacity:1;stroke-width:1"
       d="m 126.15319,142.2976 c 0.26685,-0.60041 1.6011,-8.40576 1.6011,-8.40576 l 14.34317,-3.2022 4.46974,0.46699 1.33424,0.60041 1.33425,4.33631 1.93466,-2.93535 -2.86863,-8.73933 -7.5385,-1.13411 c -7.62616,2.84496 -13.49029,3.99528 -17.18082,7.34646 -0.87674,3.0139 -0.95036,5.7601 -1.09839,8.5311 z"
       id="path5"
       sodipodi:nodetypes="cccccccccccc" /><path
       style="fill:#ce835b;fill-opacity:1;stroke-width:1"
       d="m 128.97046,135.33878 c 0,0 9.10435,4.52859 10.84974,5.66074 1.7454,1.13215 5.94378,0.5189 5.94378,0.5189 0,0 1.88691,-1.74539 0.56607,-3.72665 -1.32084,-1.98126 -17.35959,-2.45299 -17.35959,-2.45299 z"
       id="path6" /><path
       style="fill:#d68760;fill-opacity:1;stroke-width:1"
       d="m 87.726839,124.75223 -1.400961,-2.06808 c 0,0 -9.740016,-0.80055 -11.407825,-4.40302 -1.667811,-3.60247 -4.93672,-11.60796 -4.93672,-11.60796 0,0 -2.001372,-12.074951 2.935346,-11.874815 4.93672,0.200136 7.004806,1.267537 7.004806,1.267537 l 2.401647,-0.600414 c 0,0 7.538503,3.602471 7.004804,6.471102 -0.533699,2.86864 0.266851,21.01442 0.266851,21.01442 z"
       id="path7" /><path
       d="m 130.38636,95.542489 a 2.034729,2.835278 0 0 1 0.10335,0.890385 2.034729,2.835278 0 0 1 -2.03502,2.834969 2.034729,2.835278 0 0 1 -2.0345,-2.834969 2.034729,2.835278 0 0 1 0.0816,-0.758094 c -2.40429,0.604453 -5.07711,1.595156 -5.07876,1.595769 3.1134,2.830371 10.18904,2.500105 10.18904,2.500105 l 1.17926,0.282666 0.0946,-0.801497 -1.17926,-0.802018 c 0,0 -0.11236,-2.074353 -1.32033,-2.907316 z"
       style="fill:#ffffff"
       id="path16" /><path
       d="m 130.38636,95.542489 c -0.15482,-0.106755 -0.32695,-0.194267 -0.51987,-0.253215 -0.62883,-0.192143 -1.95041,0.02996 -3.36465,0.385506 a 2.034729,2.835278 0 0 0 -0.0816,0.758094 2.034729,2.835278 0 0 0 2.0345,2.834969 2.034729,2.835278 0 0 0 2.03502,-2.834969 2.034729,2.835278 0 0 0 -0.10335,-0.890385 z"
       style="display:inline;fill:#221b12;fill-opacity:1"
       id="path17" /><path
       style="fill:#221b12;fill-opacity:1;stroke-width:1"
       d="m 138.21633,93.119121 2.26429,-5.519218 -14.52922,-2.736022 -13.0197,6.179637 -1.36801,3.01906 1.83974,1.273667 c 0,0 12.64231,-10.613882 24.8129,-2.217124 z"
       id="path10" /><path
       style="fill:#221b12;fill-opacity:1;stroke-width:1"
       d="m 149.06607,94.628651 0.80194,-4.670107 5.80225,0.566073 c 0,0 2.7832,3.113405 1.27367,6.415503 -1.50953,3.3021 1.36801,-5.236181 -7.87786,-2.311469 z"
       id="path11" /><path
       style="display:inline;fill:none;fill-opacity:1;stroke:#000000;stroke-width:0.6;stroke-linecap:square;stroke-miterlimit:1;stroke-dasharray:none;stroke-dashoffset:0;stroke-opacity:1"
       d="m 119.77176,95.713626 c 0,0 11.41582,-4.811626 13.3499,0.613248"
       id="path12" /><path
       style="fill:none;fill-opacity:1;stroke:#000000;stroke-width:0.6;stroke-dasharray:none;stroke-opacity:1"
       d="m 136.23507,116.04511 c 0,0 -4.39315,5.29408 2.0756,6.98157 1.08497,0.28304 2.0756,-0.0943 2.0756,-0.0943"
       id="path13"
       sodipodi:nodetypes="csc" /><path
       style="fill:none;fill-opacity:1;stroke:#000000;stroke-width:0.6;stroke-dasharray:none;stroke-opacity:1"
       d="m 148.59434,94.345616 c 0,0 -2.45298,3.01906 -2.35864,5.660734 0.0943,2.64168 7.83069,16.03876 7.642,17.26525 -0.18869,1.22649 -0.47173,4.05686 -3.39644,4.3399 -2.92472,0.28303 -3.39644,2.35864 -2.92472,3.30209"
       id="path14" /><path
       style="fill:none;fill-opacity:1;stroke:#000000;stroke-width:0.6;stroke-dasharray:none;stroke-opacity:1"
       d="m 146.50048,98.167332 c 0,0 5.6372,-1.834592 7.13823,1.634455"
       id="path15" /><path
       d="m 151.32771,99.519507 a 1.4977367,2.5886078 0 0 1 0.0853,0.858343 1.4977367,2.5886078 0 0 1 -1.49758,2.58847 1.4977367,2.5886078 0 0 1 -1.4981,-2.58847 1.4977367,2.5886078 0 0 1 0.20774,-1.305344 c -0.93512,0.141911 -1.72651,0.407727 -1.72651,0.407727 0.0236,1.368007 1.01199,3.333127 1.03559,3.663347 0.0236,0.33018 2.50011,0.35346 2.50011,0.35346 0,0 1.67472,-1.67444 1.13223,-3.537767 -0.0505,-0.173505 -0.13232,-0.318837 -0.23875,-0.439766 z"
       style="fill:#ffffff;stroke-width:0.600001;stroke-linecap:square;stroke-miterlimit:1"
       id="path20" /><path
       d="m 151.32771,99.519507 c -0.53591,-0.608961 -1.70154,-0.598932 -2.70267,-0.447001 a 1.4977367,2.5886078 0 0 0 -0.20774,1.305344 1.4977367,2.5886078 0 0 0 1.4981,2.58847 1.4977367,2.5886078 0 0 0 1.49758,-2.58847 1.4977367,2.5886078 0 0 0 -0.0853,-0.858343 z"
       style="fill:#221b12;fill-opacity:1;stroke-width:0.633288;stroke-linecap:square;stroke-miterlimit:1"
       id="path21" /><path
       style="fill:none;fill-opacity:1;stroke:#000000;stroke-width:0.600001;stroke-linecap:square;stroke-miterlimit:1;stroke-dasharray:none;stroke-dashoffset:0;stroke-opacity:1"
       d="m 139.89595,121.04969 c 0,0 1.70117,-2.50171 4.13617,-2.10144 2.43501,0.40028 2.43501,1.50103 2.43501,1.50103"
       id="path22" /><path
       style="fill:#ffc888;fill-opacity:1;stroke:none;stroke-width:0.600001;stroke-linecap:square;stroke-miterlimit:1"
       d="m 127.60244,135.81051 -0.8491,4.43425 8.96283,6.79288 2.40581,-5.04749 c 0.69666,-1.41324 -6.50875,-5.62997 -10.51954,-6.17964 z"
       id="path8"
       sodipodi:nodetypes="ccccc" /><path
       style="fill:#ffc888;fill-opacity:1;stroke:none;stroke-width:0.600001;stroke-linecap:square;stroke-miterlimit:1"
       d="m 143.6412,149.20759 3.13699,-7.38254 -2.45298,0.1651 z"
       id="path9" /></g></svg>
